<svg class="blocks" xmlns="http://www.w3.org/2000/svg" viewBox="0 0 701 1024" style="overflow: visible;">
  
<g class="blocks-large" stroke-width="7">
    <g>
        <g transform="translate(10 940)">
          <rect x="200" y="200" width="200" height="200" />
        </g>
    </g>
 
    <g>
      <g transform="translate(621 940)">
        <rect x="400" y="400" width="400" height="400" />
      </g>
  </g>
    <g>
        <g transform="translate(621 940)">
          <rect x="400" y="400" width="400" height="400" />
        </g>
    </g>
    <g>
        <g transform="translate(179 940)">
          <rect x="100" y="100" width="100" height="100"/>
        </g>
    </g>
</g>

<g class="blocks-small" stroke-width="4">
    <g>
        <g transform="translate(147 984)">
          <rect x="50" y="50" width="100" height="100"/>
        </g>
    </g>
    <g>
        <g transform="translate(255 984)">
          <rect x="60" y="60" width="70" height="70" />
        </g>
    </g>
  
    <g>
        <g transform="translate(429 984)">
          <rect x="200" y="200" width="200" height="200" />
        </g>
    </g>
    <g>
        <g transform="translate(91 984)">
          <rect x="50" y="50" width="150" height="150"/>
        </g>
    </g>
    <g>
        <g transform="translate(640 984)">
          <rect x="50" y="20" width="150" height="150" />
        </g>
    </g>


    <g>
        <g transform="translate(376 984)">
          <rect x="50" y="20" width="150" height="150" />
        </g>
    </g>
    <g>
        <g transform="translate(497 984)">
          <rect x="50" y="20" width="150" height="150"/>
        </g>
    </g>
    
    <g>
      <g transform="translate(497 984)">
        <rect x="70s" y="70" width="150" height="150"/>
      </g>
  </g>
  <g>
      <g transform="translate(497 984)">
        <rect x="80" y="80" width="150" height="150"/>
      </g>
  </g>
</g>

</svg>